<?xml version="1.0" encoding="utf-8"?>
<!-- Generator: Adobe Illustrator 22.1.0, SVG Export Plug-In . SVG Version: 6.00 Build 0)  -->
<svg version="1.1" id="Layer_1" xmlns="http://www.w3.org/2000/svg" xmlns:xlink="http://www.w3.org/1999/xlink" x="0px" y="0px"
	 viewBox="0 0 31.7 31.7" style="enable-background:new 0 0 31.7 31.7;" xml:space="preserve">
<style type="text/css">
	.st0{fill:#FFFFFF;}
	.st1{fill:#FCBB66;}
</style>
<ellipse class="st0" cx="16.4" cy="15.2" rx="13.2" ry="14.5"/>
<title>Asset 4</title>
<path class="st1" d="M0,16.9v-2.1c0.1-0.4,0.1-0.8,0.2-1.2C0.5,11,1.5,8.6,3,6.5c2.5-3.4,6.2-5.7,10.4-6.3c0.4-0.1,0.9-0.1,1.3-0.2
	h2.1c0.1,0,0.2,0,0.3,0.1c0.5,0.1,1.1,0.1,1.6,0.2C22.6,1,26,3.1,28.3,6.1c2.5,3.2,3.7,7.3,3.2,11.3c-0.2,2.5-1.1,4.9-2.5,7
	c-3.3,5.2-9.3,7.9-15.4,7c-3-0.4-5.9-1.6-8.1-3.7c-2.9-2.5-4.8-5.9-5.3-9.6C0.1,17.8,0.1,17.3,0,16.9z M5,15.9L5,15.9
	c0,0.9,0,1.8,0,2.8c0,1.1,0.1,2.3,0.3,3.4c0.3,1.6,1.4,3,2.8,3.8c1.1,0.5,2.3,0.8,3.5,0.8c2.3,0,4.6,0.1,6.9,0
	c1.1,0,2.1-0.1,3.2-0.2c1.7-0.2,3.3-1.3,4.1-2.9c0.5-1.1,0.8-2.2,0.8-3.4c0-2.3,0-4.6,0-6.9c0-0.9-0.1-1.8-0.2-2.7
	c-0.2-2.9-2.7-5.2-5.6-5.2C18.2,5,15.6,5,13,5c-0.9,0-1.8,0.1-2.6,0.2c-2.9,0.3-5.1,2.7-5.2,5.6C5,12.4,5,14.1,5,15.9L5,15.9z"/>
<path class="st0" d="M5,15.8c0-1.7,0-3.4,0.2-5.1c0.1-2.9,2.3-5.3,5.2-5.6C11.2,5.1,12.1,5,13,5c2.6,0,5.2,0,7.8,0.1
	c3,0,5.4,2.3,5.6,5.2c0.1,0.9,0.2,1.8,0.2,2.7c0,2.3,0,4.6,0,6.9c0,1.2-0.2,2.4-0.8,3.5c-0.8,1.6-2.3,2.7-4.1,2.9
	c-1.1,0.2-2.1,0.2-3.2,0.2c-2.3,0-4.6,0-6.9,0c-1.2,0-2.4-0.2-3.5-0.8C6.7,25,5.7,23.6,5.3,22C5.1,20.9,5,19.7,5,18.6
	C5,17.6,5,16.7,5,15.8z M24.7,15.8c0-1.6-0.1-3.1-0.1-4.7c0-0.1,0-0.3-0.1-0.5c-0.1-1.7-1.3-3.1-3-3.4C20.7,7.1,19.9,7,19.1,7
	c-2.2,0-4.4,0-6.6,0c-0.6,0-1.2,0-1.9,0.1c-1.7,0.1-3.1,1.3-3.4,3C7.1,10.9,7,11.7,7,12.5c0,2.2,0,4.4,0,6.6c0,0.8,0.1,1.5,0.2,2.3
	c0.2,1.4,1.1,2.5,2.5,2.9c0.9,0.3,1.8,0.4,2.7,0.3c2.7,0,5.4,0,8.1-0.1c1,0,1.9-0.3,2.7-0.9c0.9-0.8,1.5-2,1.4-3.2
	C24.6,18.9,24.6,17.3,24.7,15.8L24.7,15.8z"/>
<path class="st1" d="M24.7,15.8c0,1.5,0,3.1-0.1,4.6c0,1.2-0.5,2.4-1.4,3.2c-0.8,0.6-1.7,0.9-2.7,0.9c-2.7,0-5.3,0.1-8.1,0.1
	c-0.9,0-1.9-0.1-2.7-0.3c-1.3-0.4-2.3-1.6-2.5-2.9C7.1,20.6,7,19.8,7,19.1c0-2.2,0-4.4,0-6.6c0-0.8,0.1-1.6,0.2-2.3
	c0.3-1.7,1.7-2.9,3.4-3C11.3,7.1,11.9,7,12.5,7c2.2,0,4.4,0,6.6,0c0.8,0,1.6,0.1,2.4,0.2c1.7,0.3,2.9,1.7,3,3.4c0,0.1,0,0.3,0.1,0.5
	C24.6,12.7,24.6,14.2,24.7,15.8z M15.8,10.3c-3.1,0-5.6,2.5-5.6,5.6s2.5,5.6,5.6,5.6s5.6-2.5,5.6-5.6C21.3,12.8,18.9,10.3,15.8,10.3
	z M21.6,8.8c-0.7,0-1.3,0.5-1.3,1.2s0.6,1.3,1.3,1.3c0.7,0,1.3-0.6,1.3-1.3S22.3,8.8,21.6,8.8L21.6,8.8z"/>
<path class="st0" d="M15.8,10.3c3.1,0,5.6,2.5,5.6,5.5s-2.5,5.6-5.5,5.6s-5.6-2.5-5.6-5.5l0,0C10.3,12.7,12.7,10.3,15.8,10.3z
	 M15.8,12.3c-2,0-3.6,1.6-3.6,3.6s1.6,3.6,3.6,3.6s3.6-1.6,3.6-3.6s-1.5-3.6-3.5-3.6C15.9,12.2,15.8,12.2,15.8,12.3L15.8,12.3z"/>
<path class="st0" d="M21.6,8.8c0.7,0,1.3,0.6,1.3,1.2c0,0,0,0,0,0.1c0,0.7-0.6,1.3-1.3,1.3c-0.7,0-1.3-0.6-1.3-1.4
	C20.3,9.3,20.9,8.8,21.6,8.8z"/>
<path class="st1" d="M15.8,12.2c2,0,3.6,1.6,3.6,3.6s-1.6,3.6-3.6,3.6s-3.6-1.6-3.6-3.6l0,0C12.2,13.8,13.8,12.2,15.8,12.2
	L15.8,12.2z"/>
</svg>
