<?xml version="1.0" encoding="utf-8"?>
<!-- Generator: Adobe Illustrator 22.1.0, SVG Export Plug-In . SVG Version: 6.00 Build 0)  -->
<svg version="1.1" id="Layer_1" xmlns="http://www.w3.org/2000/svg" xmlns:xlink="http://www.w3.org/1999/xlink" x="0px" y="0px"
	 viewBox="0 0 32.6 32.6" style="enable-background:new 0 0 32.6 32.6;" xml:space="preserve">
<style type="text/css">
	.st0{fill:#FCBB66;}
	.st1{fill:#C5C5C5;}
	.st2{fill:#FFFFFF;}
</style>
<title>Asset 3</title>
<g id="Layer_1-2">
	<path class="st0" d="M15.3,0h2c0.1,0,0.2,0,0.3,0.1c3.6,0.3,7.1,1.8,9.7,4.3c3.9,3.5,5.8,8.7,5.1,13.9c-0.5,4.8-3.1,9.1-7.2,11.6
		c-4.8,3.4-11.2,3.7-16.4,0.9c-4.6-2.2-7.7-6.6-8.6-11.6c-0.1-0.6-0.2-1.2-0.3-1.9v-2.1c0-0.1,0-0.1,0.1-0.2
		c0.1-2.2,0.8-4.3,1.8-6.2c2.3-4.5,6.6-7.6,11.5-8.5C14,0.1,14.6,0.1,15.3,0z"/>
	<path class="st1" d="M9.5,17.8c0.5,1.5,1.8,2.6,3.3,2.7c-1.4,1.2-3.3,1.8-5.1,1.6c1,0.7,2.1,1.2,3.3,1.4c3,0.7,6.1-0.1,8.4-2.1
		c2.5-2.1,3.9-5.3,3.9-8.6c0-0.3,0.1-0.5,0.3-0.6c0.5-0.4,0.9-0.9,1.3-1.4c0-0.1,0.1-0.1,0.1-0.2l-1.8,0.5c0.3-0.3,0.6-0.6,0.8-0.9
		c0.2-0.3,0.4-0.7,0.6-1.1l-2,0.7c-0.2,0.1-0.4,0-0.5-0.1c-1.3-1.4-3.5-1.4-4.9,0c-0.3,0.3-0.6,0.7-0.8,1.1
		c-0.3,0.8-0.4,1.6-0.3,2.5c-2.9-0.2-5.6-1.7-7.4-4.1c-1,1.4-0.6,3.3,1,5.1c-0.3-0.1-0.6-0.1-0.8-0.2S8.5,14.1,8.2,14
		c0,1.7,1.1,3.2,2.7,3.8v0.1H9.5z"/>
	<path class="st2" d="M9.5,17.8h1.4v-0.1c-1.6-0.5-2.7-2.1-2.7-3.8c0.3,0.1,0.5,0.2,0.8,0.3s0.5,0.1,0.8,0.2c-1.6-1.8-2-3.7-1-5.1
		c1.8,2.3,4.5,3.8,7.4,4.1c-0.2-0.8-0.1-1.7,0.3-2.5c0.7-1.8,2.8-2.6,4.5-1.9c0.4,0.2,0.8,0.4,1.1,0.7c0.1,0.2,0.4,0.2,0.5,0.1
		l2-0.7c-0.2,0.4-0.4,0.7-0.6,1.1c-0.3,0.3-0.5,0.6-0.8,0.9l1.8-0.5c0,0.1-0.1,0.1-0.1,0.2c-0.4,0.5-0.8,0.9-1.3,1.4
		c-0.2,0.2-0.3,0.4-0.3,0.6c0,3.3-1.4,6.4-3.9,8.6c-2.3,2-5.4,2.8-8.4,2.1c-1.2-0.2-2.3-0.7-3.3-1.4c1.9,0.1,3.7-0.4,5.1-1.6
		C11.2,20.4,9.9,19.3,9.5,17.8z"/>
</g>
</svg>
