<svg id="Layer_1" data-name="Layer 1" xmlns="http://www.w3.org/2000/svg" xmlns:xlink="http://www.w3.org/1999/xlink" viewBox="0 0 204.19 149.85"><defs><style>.cls-1{fill:none;}.cls-2{clip-path:url(#clip-path);}.cls-3{fill:#fff;}</style><clipPath id="clip-path" transform="translate(-6.18 -32.86)"><rect class="cls-1" x="6.18" y="32.86" width="204.19" height="149.85"/></clipPath></defs><title>logo</title><g class="cls-2"><path class="cls-3" d="M52.83,66s7.37,1.17,7.37,1.19l0,14.62v47.68a51.43,51.43,0,0,1-.12,5.21,13.1,13.1,0,0,1-3.35,8.52c-3.37,3.77-9.16,4.48-12.18,3.75a13.46,13.46,0,0,1-8.89-6.5,12.1,12.1,0,0,1-1-2.32,12.78,12.78,0,0,1-.43-1.86,16.25,16.25,0,0,1-.14-1.71c0-.11,0-.79.06-1.33s.11-.89.14-1.05c.09-.41.14-.67.14-.67s-4.27,3.89-5.33,4.77l-23,19.15s3.37,8,9.22,13.52a47.09,47.09,0,0,0,14.37,9.67,42.3,42.3,0,0,0,10,3.12,62.39,62.39,0,0,0,9.84.87,61.63,61.63,0,0,0,9-1,43.14,43.14,0,0,0,10.09-3.34,43.32,43.32,0,0,0,16.73-12.52,65.7,65.7,0,0,0,8.07-13A34.54,34.54,0,0,0,95.83,140c.06-3.31-.14-6.56-.07-9.95s0-6.3,0-9.57l.06-53.31L60.23,33Z" transform="translate(-6.18 -32.86)"/></g><polygon class="cls-3" points="67.18 62.11 154.75 149.85 204.19 149.73 89.59 34.31 67.18 62.11"/><polygon class="cls-3" points="35.26 35.64 54.15 35.6 54.18 0.1 35.24 0.08 35.26 35.64"/><g class="cls-2"><path class="cls-3" d="M157.93,32.86a34.54,34.54,0,0,1,12.75,2.37,65.7,65.7,0,0,1,13,8.07A43.32,43.32,0,0,1,196.19,60a43.14,43.14,0,0,1,3.34,10.09,61.63,61.63,0,0,1,1,9,62.39,62.39,0,0,1-.87,9.84,41.84,41.84,0,0,1-3.12,10,47.09,47.09,0,0,1-9.67,14.37c-5.55,5.85-8.54,8.23-10.58,9.12l-21.62-21.24L147,93.5s2.7.77,3.12.86c.16,0,.5.09,1,.14s1.23.07,1.33.06a16.25,16.25,0,0,0,1.71-.14A12.49,12.49,0,0,0,156,94a12.1,12.1,0,0,0,2.32-1,13.46,13.46,0,0,0,6.5-8.89c.73-3,0-8.81-3.75-12.18a13.09,13.09,0,0,0-8.51-3.35,51.55,51.55,0,0,0-5.21-.12l-25.34.1L86.58,32.9h51.83" transform="translate(-6.18 -32.86)"/></g></svg>